# xmcd
#
# Track frame offsets: 
#        150
#        22110
#        41344
#        60726
#        79689
#        95531
#        114720
#        137404
#        155447
#        179788
#        197103
#
# Disc length: 2828 seconds
#
# Revision: 4
# Processed by: cddbd v1.5.2PL0 Copyright (c) Steve Scherf et al.
# Submitted via: ExactAudioCopy v1.0b3
#
DISCID=940b0a0b
DTITLE=PHENOMENA - PSYCHO FANTASY (LIMITED EDITION DIGIBOOK)
DYEAR=2006
DGENRE=Progressive Rock
TTITLE0=Sunrise
TTITLE1=Touch My Life
TTITLE2=Killing For The Thrill
TTITLE3=So Near So Far
TTITLE4=Chemical High
TTITLE5=Higher
TTITLE6=60 Seconds
TTITLE7=Crazy Grooves
TTITLE8=How Do You Feel
TTITLE9=All That I Need
TTITLE10=God Forgives
EXTD=YEAR: 2006
EXTT0=
EXTT1=
EXTT2=
EXTT3=
EXTT4=
EXTT5=
EXTT6=
EXTT7=
EXTT8=
EXTT9=
EXTT10=
PLAYORDER=
